<mxfile host="app.diagrams.net" modified="2023-05-29T12:15:38.543Z" agent="Mozilla/5.0 (Windows NT 10.0; Win64; x64) AppleWebKit/537.36 (KHTML, like Gecko) Chrome/113.0.0.0 Safari/537.36" version="21.3.3" etag="Xu4ZPN8qusxokBvfH79w" type="github">
  <diagram name="Страница 1" id="PD5ZdtD7CcJSJB6H38t9">
    <mxGraphModel>
      <root>
        <mxCell id="0" />
        <mxCell id="1" parent="0" />
      </root>
    </mxGraphModel>
  </diagram>
</mxfile>
